PathFileType	4	(X/Y/Z)	C:\Users\WrightLab\Desktop\Jo\P4V18.trc
DataRate	CameraRate	NumFrames	NumMarkers	Units	OrigDataRate	OrigDataStartFrame	OrigNumFrames
100.00	100.00	       53	19	mm	100.00	440	       502
Frame#	Time	Headset_Front			Headset_Back			Headset_Left			Headset_Right			Left_Shoulder			Right_Shoulder			Sternum			C7			Left Elbow			Right Elbow			Left Wrist			Right Wrist			Left ASIS			Right ASIS			S2			Left Knee			Right Knee			Left Ankle			Right Ankle			
		X1	Y1	Z1	X2	Y2	Z2	X3	Y3	Z3	X4	Y4	Z4	X5	Y5	Z5	X6	Y6	Z6	X7	Y7	Z7	X8	Y8	Z8	X9	Y9	Z9	X10	Y10	Z10	X11	Y11	Z11	X12	Y12	Z12	X13	Y13	Z13	X14	Y14	Z14	X15	Y15	Z15	X16	Y16	Z16	X17	Y17	Z17	X18	Y18	Z18	X19	Y19	Z19	

440	4.390																									-482.56467	1159.33728	-1540.62878																												-123.50944	24.07581	-1417.33020	
441	4.400																									-481.20236	1160.00439	-1545.76953																												-123.55225	24.05182	-1417.08472	
442	4.410																									-479.46729	1159.85046	-1550.16772																												-123.56783	24.03268	-1417.09045	
443	4.420																									-477.45490	1160.08276	-1555.83472																												-123.55099	24.04150	-1417.08313	
444	4.430																									-476.09708	1161.15356	-1562.95703																												-123.55942	24.03245	-1417.08630	
445	4.440																									-474.05658	1160.87708	-1568.52075																												-123.54867	24.02434	-1417.08044	
446	4.450																									-472.31451	1160.57568	-1573.82581																												-123.54187	24.00190	-1417.07507	
447	4.460																									-469.74097	1161.96021	-1583.39893																												-123.51854	23.97804	-1417.06165	
448	4.470																									-468.64270	1161.67957	-1588.52136																												-123.26374	24.25362	-1416.61829	
449	4.480																									-466.91125	1160.26294	-1591.65723																												-123.25452	24.24800	-1416.61340	
450	4.490																									-464.55984	1161.14331	-1600.71375																												-122.39161	23.12016	-1416.56934	
451	4.500																									-463.57996	1161.58813	-1608.04602																												-123.23785	24.19719	-1416.60059	
452	4.510																									-462.01871	1160.83716	-1613.51721																												-122.01675	23.15072	-1415.90527	
453	4.520																									-460.52255	1160.06580	-1619.12805																												-122.99767	22.88606	-1415.09607	
454	4.530																									-459.51407	1160.44263	-1626.75305																												-123.04153	22.84209	-1415.16138	
455	4.540																									-457.27075	1161.25354	-1636.26135																												-123.10309	22.75775	-1415.25171	
456	4.550																									-455.96967	1159.86096	-1640.96985																												-123.34018	22.16534	-1415.48328	
457	4.560																									-454.17517	1158.40356	-1645.96643																												-123.38496	22.09737	-1415.54858	
458	4.570																									-452.43546	1160.15466	-1657.51685																												-123.41592	22.04003	-1415.59302	
459	4.580																									-451.14111	1159.98657	-1665.09241																												-123.41928	22.01494	-1415.59680	
460	4.590																									-450.03748	1158.51697	-1670.14014																												-123.43816	21.99252	-1415.62463	
461	4.600																									-448.24963	1158.23132	-1678.21741																												-123.17418	21.36990	-1415.18652	
462	4.610																									-446.75104	1158.97778	-1688.45276																												-123.45148	21.93846	-1415.64209	
463	4.620																									-445.59134	1157.38733	-1693.91809																												-123.34091	22.12858	-1413.78601	
464	4.630																									-443.40808	1156.55591	-1701.82239																												-123.33638	22.13735	-1413.77954	
465	4.640																									-442.12457	1157.16003	-1712.19287																												-123.14985	21.38984	-1415.15002	
466	4.650																																																							-123.42339	22.00352	-1415.60242	
467	4.660																																																							-123.41441	22.04856	-1415.59119	
468	4.670																																																							-123.43801	22.07057	-1415.62903	
469	4.680																																																							-123.90732	22.62819	-1416.84229	
470	4.690																																																							-124.17710	23.31299	-1416.97412	
471	4.700																																																							-124.18472	23.97155	-1417.42920	
472	4.710																																																							-124.31197	23.90026	-1417.83911	
473	4.720																																																							-124.72073	24.35382	-1418.71851	
474	4.730																																																							-125.42896	25.18027	-1418.89648	
475	4.740																																																							-125.47650	25.23907	-1418.92480	
476	4.750																																																							-125.52009	25.26447	-1419.32813	
477	4.760																																																							-125.97778	26.39714	-1419.55603	
478	4.770																																																							-126.27079	26.11445	-1420.91174	
479	4.780																																																							-126.26979	26.43587	-1420.98450	
480	4.790																																																							-126.12563	26.92525	-1421.73499	
481	4.800																																																							-127.59379	28.43909	-1422.09229	
482	4.810																																																							-126.95246	28.37111	-1422.92554	
483	4.820																																																							-126.22335	29.49363	-1421.86536	
484	4.830																																																							-127.21130	29.68840	-1423.59949	
485	4.840																																																							-128.14017	30.40153	-1424.01819	
486	4.850																																																							-128.28505	30.11808	-1425.20068	
487	4.860																																																							-128.85240	30.35975	-1425.40015	
488	4.870																																																							-132.71625	30.16121	-1426.87158	
489	4.880																																																							-135.12982	30.40846	-1428.48938	
490	4.890																																																							-140.06668	30.73521	-1432.48608	
491	4.900																																																							-143.85155	30.44119	-1436.97363	
492	4.910																																																							-148.31221	31.18645	-1440.32471	
